<?xml version="1.0" standalone="no"?><!DOCTYPE svg PUBLIC "-//W3C//DTD SVG 1.1//EN" "http://www.w3.org/Graphics/SVG/1.1/DTD/svg11.dtd"><svg t="1589956512298" class="icon" viewBox="0 0 1024 1024" version="1.1" xmlns="http://www.w3.org/2000/svg" p-id="1843" width="16" height="16" xmlns:xlink="http://www.w3.org/1999/xlink"><defs><style type="text/css"></style></defs><path d="M362.666667 857.173333v-228.821333a81.493333 81.493333 0 0 1 81.493333-81.450667h135.68a81.493333 81.493333 0 0 1 81.493333 81.493334v228.821333H768V554.666667a42.666667 42.666667 0 0 1 85.333333 0v306.432a81.493333 81.493333 0 0 1-81.493333 81.450666H252.16A81.493333 81.493333 0 0 1 170.666667 861.013333V554.666667a42.666667 42.666667 0 0 1 85.333333 0v302.506666h106.666667z m85.333333 0h128v-224.938666h-128v224.981333z m60.928-716.8L153.728 409.002667a42.666667 42.666667 0 0 1-51.456-68.096l380.928-288a42.666667 42.666667 0 0 1 51.456 0l380.928 288a42.666667 42.666667 0 1 1-51.456 68.096L508.928 140.373333z" fill="#8a8a8a" p-id="1844"></path></svg>